<svg width="960" height="640" viewBox="0 0 960 640" fill="none" xmlns="http://www.w3.org/2000/svg">
<rect width="960" height="640" rx="48" fill="#F5F3FF"/>
<rect y="422" width="960" height="218" fill="#BFDBFE"/>
<rect x="144" y="188" width="672" height="298" rx="28" fill="#FFFFFF"/>
<rect x="206" y="238" width="110" height="82" rx="16" fill="#EDE9FE"/>
<rect x="352" y="238" width="110" height="82" rx="16" fill="#EDE9FE"/>
<rect x="498" y="238" width="110" height="82" rx="16" fill="#EDE9FE"/>
<rect x="644" y="238" width="110" height="82" rx="16" fill="#EDE9FE"/>
<circle cx="482" cy="394" r="64" fill="#8B5CF6"/>
<path d="M450 392C450 358 474 332 508 332C530 332 554 346 564 372C548 364 528 362 510 372C492 382 482 398 480 420C462 416 450 406 450 392Z" fill="#FFFFFF"/>
</svg>
