<svg width="640" height="640" viewBox="0 0 640 640" fill="none" xmlns="http://www.w3.org/2000/svg">
<rect width="640" height="640" rx="48" fill="#FEF2F2"/>
<rect x="44" y="44" width="552" height="552" rx="36" fill="#FFFCFC"/>
<circle cx="320" cy="222" r="102" fill="#F7D7C1"/>
<path d="M210 220C210 154 260 104 320 104C380 104 430 154 430 220V254H210V220Z" fill="#1F2937"/>
<path d="M186 530C186 432 246 366 320 366C394 366 454 432 454 530V596H186V530Z" fill="#FFFFFF"/>
<path d="M242 406H398L436 596H204L242 406Z" fill="#FEE2E2"/>
<path d="M288 448C288 430 302 416 320 416C338 416 352 430 352 448V504C352 522 338 536 320 536C302 536 288 522 288 504V448Z" fill="#DC2626"/>
<circle cx="478" cy="148" r="54" fill="#FEE2E2"/>
<path d="M452 152C452 130 470 112 492 112C514 112 532 130 532 152C532 174 514 192 492 192H474V172H492C503 172 512 163 512 152C512 141 503 132 492 132C481 132 472 141 472 152V186H452V152Z" fill="#DC2626"/>
</svg>
