<svg width="640" height="640" viewBox="0 0 640 640" fill="none" xmlns="http://www.w3.org/2000/svg">
<rect width="640" height="640" rx="48" fill="#FFF7ED"/>
<rect x="44" y="44" width="552" height="552" rx="36" fill="#FFFCF8"/>
<circle cx="320" cy="222" r="102" fill="#F9DCC9"/>
<path d="M210 220C210 156 260 108 320 108C380 108 430 156 430 220V256H210V220Z" fill="#9A3412"/>
<path d="M186 528C186 426 246 362 320 362C394 362 454 426 454 528V596H186V528Z" fill="#FFFFFF"/>
<path d="M246 406H394L436 596H204L246 406Z" fill="#FFEDD5"/>
<path d="M272 510L360 430" stroke="#EA580C" stroke-width="24" stroke-linecap="round"/>
<path d="M286 418L380 508" stroke="#FB923C" stroke-width="18" stroke-linecap="round"/>
<circle cx="482" cy="148" r="54" fill="#FFEDD5"/>
<path d="M458 134H506V162H458V134Z" fill="#EA580C"/>
</svg>
