<svg width="640" height="640" viewBox="0 0 640 640" fill="none" xmlns="http://www.w3.org/2000/svg">
<rect width="640" height="640" rx="48" fill="#EFF6FF"/>
<rect x="44" y="44" width="552" height="552" rx="36" fill="#FAFDFF"/>
<circle cx="320" cy="222" r="102" fill="#F8D9C2"/>
<path d="M210 220C210 154 260 104 320 104C380 104 430 154 430 220V252H210V220Z" fill="#0F172A"/>
<path d="M184 530C184 432 246 366 320 366C394 366 456 432 456 530V596H184V530Z" fill="#FFFFFF"/>
<path d="M240 406H400L436 596H204L240 406Z" fill="#E0F2FE"/>
<circle cx="284" cy="456" r="34" stroke="#0284C7" stroke-width="14"/>
<circle cx="356" cy="456" r="34" stroke="#0284C7" stroke-width="14"/>
<path d="M318 456H322" stroke="#0284C7" stroke-width="14" stroke-linecap="round"/>
<circle cx="482" cy="148" r="54" fill="#DBEAFE"/>
<circle cx="482" cy="148" r="24" fill="#38BDF8"/>
</svg>
