<svg width="640" height="640" viewBox="0 0 640 640" fill="none" xmlns="http://www.w3.org/2000/svg">
<rect width="640" height="640" rx="48" fill="#ECFDF5"/>
<rect x="44" y="44" width="552" height="552" rx="36" fill="#FBFFFD"/>
<circle cx="320" cy="222" r="102" fill="#F7D5B9"/>
<path d="M210 224C210 162 260 110 320 110C380 110 430 162 430 224V248H210V224Z" fill="#14532D"/>
<path d="M184 530C184 430 246 364 320 364C394 364 456 430 456 530V596H184V530Z" fill="#FFFFFF"/>
<path d="M240 404H400L434 596H206L240 404Z" fill="#DCFCE7"/>
<rect x="274" y="430" width="92" height="126" rx="22" fill="#ECFDF5"/>
<rect x="292" y="448" width="56" height="24" rx="12" fill="#16A34A"/>
<circle cx="476" cy="150" r="54" fill="#D1FAE5"/>
<path d="M448 150H504" stroke="#16A34A" stroke-width="14" stroke-linecap="round"/>
<path d="M476 122V178" stroke="#16A34A" stroke-width="14" stroke-linecap="round"/>
</svg>
